<?xml version="1.0" encoding="UTF-8" standalone="no"?>
<!DOCTYPE svg PUBLIC "-//W3C//DTD SVG 1.1//EN" "http://www.w3.org/Graphics/SVG/1.1/DTD/svg11.dtd">
<svg width="100%" height="100%" viewBox="0 0 456 456" version="1.1" xmlns="http://www.w3.org/2000/svg" xmlns:xlink="http://www.w3.org/1999/xlink" xml:space="preserve" xmlns:serif="http://www.serif.com/" style="fill-rule:evenodd;clip-rule:evenodd;stroke-linejoin:round;stroke-miterlimit:2;">
    <g transform="matrix(0.531509,0,0,0.531509,64.7457,84.1233)">
        <g id="Layer1">
            <g>
                <path d="M165.953,384.865L165.953,160.431L82.116,160.431L82.116,130.403L283.811,130.403L283.811,160.431L199.627,160.431L199.627,384.865L165.953,384.865Z" style="fill:white;fill-rule:nonzero;"/>
                <path d="M318.353,384.865L318.353,130.403L406.009,130.403C425.796,130.403 440.898,131.618 451.312,134.048C465.892,137.403 478.332,143.479 488.631,152.273C502.054,163.613 512.093,178.107 518.746,195.754C525.4,213.401 528.727,233.564 528.727,256.245C528.727,275.57 526.47,292.696 521.957,307.624C517.445,322.551 511.659,334.904 504.6,344.682C497.541,354.46 489.817,362.155 481.428,367.768C473.038,373.38 462.913,377.633 451.052,380.525C439.191,383.418 425.565,384.865 410.175,384.865L318.353,384.865ZM352.027,354.836L406.356,354.836C423.135,354.836 436.298,353.274 445.844,350.15C455.391,347.025 463,342.628 468.67,336.958C476.654,328.973 482.874,318.241 487.329,304.76C491.784,291.278 494.012,274.933 494.012,255.724C494.012,229.109 489.643,208.656 480.907,194.365C472.17,180.074 461.553,170.499 449.056,165.638C440.03,162.167 425.507,160.431 405.488,160.431L352.027,160.431L352.027,354.836Z" style="fill:white;fill-rule:nonzero;"/>
            </g>
        </g>
    </g>
</svg>
